<?xml version="1.0" encoding="UTF-8" standalone="no"?>
<!-- Created with Inkscape (http://www.inkscape.org/) -->

<svg
   width="48"
   height="48"
   viewBox="0 0 12.7 12.7"
   version="1.1"
   id="svg1"
   inkscape:version="1.3.2 (091e20e, 2023-11-25, custom)"
   sodipodi:docname="svg48_48_template_darkBGtransparent.svg"
   inkscape:export-filename="night-moon.svg"
   inkscape:export-xdpi="96"
   inkscape:export-ydpi="96"
   xmlns:inkscape="http://www.inkscape.org/namespaces/inkscape"
   xmlns:sodipodi="http://sodipodi.sourceforge.net/DTD/sodipodi-0.dtd"
   xmlns="http://www.w3.org/2000/svg"
   xmlns:svg="http://www.w3.org/2000/svg"
   xmlns:rdf="http://www.w3.org/1999/02/22-rdf-syntax-ns#"
   xmlns:cc="http://creativecommons.org/ns#"
   xmlns:dc="http://purl.org/dc/elements/1.1/">
  <title
     id="title1">SVG Transparent Template (48px x 48px)</title>
  <sodipodi:namedview
     id="namedview1"
     pagecolor="#000000"
     bordercolor="#ffffff"
     borderopacity="1"
     inkscape:showpageshadow="false"
     inkscape:pageopacity="0.0"
     inkscape:pagecheckerboard="true"
     inkscape:deskcolor="#000000"
     inkscape:document-units="px"
     guidecolor="#000000"
     guideopacity="0.65882353"
     guidehicolor="#000000"
     guidehiopacity="0.49803922"
     inkscape:clip-to-page="false"
     inkscape:zoom="8.1941057"
     inkscape:cx="22.699243"
     inkscape:cy="20.441523"
     inkscape:window-width="1920"
     inkscape:window-height="1009"
     inkscape:window-x="1912"
     inkscape:window-y="-8"
     inkscape:window-maximized="1"
     inkscape:current-layer="layer1" />
  <defs
     id="defs1" />
  <g
     inkscape:label="Layer 1"
     inkscape:groupmode="layer"
     id="layer1">
    <circle
       style="fill:#1a1a1a;stroke-width:0.233"
       id="path6"
       cx="6.3771701"
       cy="6.4417491"
       r="6.3125916" />
    <circle
       style="fill:#000000;stroke-width:0.228933"
       id="path1"
       cx="6.3771701"
       cy="6.5034862"
       r="6.0347762" />
    <path
       id="circle1"
       style="fill:#ffffff;stroke-width:0.257735"
       d="M 10.197887,1.5848682 A 6.1020223,6.1020223 0 0 0 9.0377229,0.9180843 6.0552035,6.0552035 0 0 1 9.4422368,8.6641456 6.0552035,6.0552035 0 0 1 1.9442813,10.460778 6.1020223,6.1020223 0 0 0 2.8776153,11.350206 6.1020223,6.1020223 0 0 0 11.420421,10.127673 6.1020223,6.1020223 0 0 0 10.197887,1.5848682 Z"
       inkscape:transform-center-x="-0.469687"
       inkscape:transform-center-y="0.49420278" />
    <path
       sodipodi:type="star"
       style="fill:#ffffff;stroke-width:0.264583"
       id="path2"
       inkscape:flatsided="false"
       sodipodi:sides="5"
       sodipodi:cx="3.0029206"
       sodipodi:cy="1.9696577"
       sodipodi:r1="2.7245884"
       sodipodi:r2="1.3622942"
       sodipodi:arg1="1.0222469"
       sodipodi:arg2="1.6505655"
       inkscape:rounded="0"
       inkscape:randomized="0"
       d="M 4.4236573,4.2944994 2.8943668,3.3276199 1.2308965,4.0392742 1.6778768,2.2860502 0.4870128,0.92390926 2.2925524,0.80723674 3.2200282,-0.7462669 3.8889328,0.93484947 5.6530083,1.3368724 4.2608745,2.4925319 Z"
       inkscape:transform-center-x="-0.083338064"
       inkscape:transform-center-y="0.021911612"
       transform="matrix(0.43110369,0.08863528,-0.14744973,0.25914593,1.8683774,6.1981868)" />
    <path
       sodipodi:type="star"
       style="fill:#ffffff;stroke-width:0.264583"
       id="path3"
       inkscape:flatsided="false"
       sodipodi:sides="5"
       sodipodi:cx="3.0029206"
       sodipodi:cy="1.9696577"
       sodipodi:r1="2.7245884"
       sodipodi:r2="1.3622942"
       sodipodi:arg1="1.0222469"
       sodipodi:arg2="1.6505655"
       inkscape:rounded="0"
       inkscape:randomized="0"
       d="M 4.4236573,4.2944994 2.8943668,3.3276199 1.2308965,4.0392742 1.6778768,2.2860502 0.4870128,0.92390926 2.2925524,0.80723674 3.2200282,-0.7462669 3.8889328,0.93484947 5.6530083,1.3368724 4.2608745,2.4925319 Z"
       inkscape:transform-center-x="-0.046505859"
       inkscape:transform-center-y="0.062600297"
       transform="matrix(0.24057252,0.25322569,-0.08228265,0.74036437,8.0442258,2.1996347)" />
    <path
       sodipodi:type="star"
       style="fill:#ffffff;stroke-width:0.264583"
       id="path4"
       inkscape:flatsided="false"
       sodipodi:sides="5"
       sodipodi:cx="3.0029206"
       sodipodi:cy="1.9696577"
       sodipodi:r1="2.7245884"
       sodipodi:r2="1.3622942"
       sodipodi:arg1="1.0222469"
       sodipodi:arg2="1.6505655"
       inkscape:rounded="0"
       inkscape:randomized="0"
       d="M 4.4236573,4.2944994 2.8943668,3.3276199 1.2308965,4.0392742 1.6778768,2.2860502 0.4870128,0.92390926 2.2925524,0.80723674 3.2200282,-0.7462669 3.8889328,0.93484947 5.6530083,1.3368724 4.2608745,2.4925319 Z"
       inkscape:transform-center-x="-0.10454453"
       inkscape:transform-center-y="0.048239608"
       transform="matrix(0.54080346,0.19513496,-0.18497018,0.57052256,3.0579036,1.580836)" />
    <path
       sodipodi:type="star"
       style="fill:#ffffff;stroke-width:0.264583"
       id="path5"
       inkscape:flatsided="false"
       sodipodi:sides="5"
       sodipodi:cx="3.0029206"
       sodipodi:cy="1.9696577"
       sodipodi:r1="2.7245884"
       sodipodi:r2="1.3622942"
       sodipodi:arg1="1.0222469"
       sodipodi:arg2="1.6505655"
       inkscape:rounded="0"
       inkscape:randomized="0"
       d="M 4.4236573,4.2944994 2.8943668,3.3276199 1.2308965,4.0392742 1.6778768,2.2860502 0.4870128,0.92390926 2.2925524,0.80723674 3.2200282,-0.7462669 3.8889328,0.93484947 5.6530083,1.3368724 4.2608745,2.4925319 Z"
       inkscape:transform-center-x="-0.05267386"
       inkscape:transform-center-y="0.024305149"
       transform="matrix(0.27247917,0.09831707,-0.09319563,0.28745289,6.0572099,6.7746358)" />
  </g>
  <metadata
     id="metadata1">
    <rdf:RDF>
      <cc:Work
         rdf:about="">
        <dc:title>SVG Transparent Template (48px x 48px)</dc:title>
      </cc:Work>
    </rdf:RDF>
  </metadata>
</svg>
